<?xml version="1.0" encoding="utf-8" standalone="no"?>
<!DOCTYPE svg PUBLIC "-//W3C//DTD SVG 1.1//EN"
  "http://www.w3.org/Graphics/SVG/1.1/DTD/svg11.dtd">
<svg xmlns:xlink="http://www.w3.org/1999/xlink" width="864pt" height="432pt" viewBox="0 0 864 432" xmlns="http://www.w3.org/2000/svg" version="1.1">
 <metadata>
  <rdf:RDF xmlns:dc="http://purl.org/dc/elements/1.1/" xmlns:cc="http://creativecommons.org/ns#" xmlns:rdf="http://www.w3.org/1999/02/22-rdf-syntax-ns#">
   <cc:Work>
    <dc:type rdf:resource="http://purl.org/dc/dcmitype/StillImage"/>
    <dc:date>2025-08-30T20:18:44.908227</dc:date>
    <dc:format>image/svg+xml</dc:format>
    <dc:creator>
     <cc:Agent>
      <dc:title>Matplotlib v3.6.3, https://matplotlib.org/</dc:title>
     </cc:Agent>
    </dc:creator>
   </cc:Work>
  </rdf:RDF>
 </metadata>
 <defs>
  <style type="text/css">*{stroke-linejoin: round; stroke-linecap: butt}</style>
 </defs>
 <g id="figure_1">
  <g id="patch_1">
   <path d="M 0 432 
L 864 432 
L 864 0 
L 0 0 
z
" style="fill: #ffffff"/>
  </g>
  <g id="axes_1">
   <g id="patch_2">
    <path d="M 0 432 
L 864 432 
L 864 -0 
L 0 -0 
z
" clip-path="url(#p5dbf069b3b)" style="fill: #a8733a"/>
   </g>
   <g id="patch_3">
    <path d="M 115.241753 169.26358 
L 115.241753 190.353136 
Q 107.045002 186.681675 99.232474 184.824599 
Q 91.441292 182.946177 84.503938 182.946177 
Q 75.30394 182.946177 70.885379 185.486315 
Q 66.488164 188.005109 66.488164 193.341535 
Q 66.488164 197.354527 69.455217 199.595826 
Q 72.422269 201.815779 80.234797 203.416707 
L 91.163798 205.615315 
Q 107.770756 208.96659 114.772147 215.77587 
Q 121.794884 222.563804 121.794884 235.115078 
Q 121.794884 251.572617 112.018551 259.619947 
Q 102.242219 267.667278 82.155911 267.667278 
Q 72.699764 267.667278 63.158234 265.852893 
Q 53.616704 264.059854 44.075174 260.516467 
L 44.075174 238.850577 
Q 53.616704 243.909509 62.517863 246.492339 
Q 71.419021 249.053823 79.701155 249.053823 
Q 88.111362 249.053823 92.572614 246.257536 
Q 97.033867 243.439903 97.033867 238.231551 
Q 97.033867 233.578188 94.002777 231.038049 
Q 90.971687 228.49791 81.899762 226.491414 
L 71.952664 224.292806 
Q 57.010671 221.090951 50.094663 214.089559 
Q 43.2 207.088168 43.2 195.219957 
Q 43.2 180.342001 52.805567 172.337362 
Q 62.411134 164.332722 80.426909 164.332722 
Q 88.645005 164.332722 97.311361 165.570773 
Q 105.977717 166.808824 115.241753 169.26358 
z
M 132.454395 166.125762 
L 224.240924 166.125762 
L 224.240924 185.550353 
L 191.219119 185.550353 
L 191.219119 265.724819 
L 165.540237 265.724819 
L 165.540237 185.550353 
L 132.454395 185.550353 
L 132.454395 166.125762 
z
M 283.01899 182.946177 
Q 271.278852 182.946177 264.811104 191.612533 
Q 258.343355 200.278889 258.343355 216.032019 
Q 258.343355 231.699766 264.811104 240.387467 
Q 271.278852 249.053823 283.01899 249.053823 
Q 294.823164 249.053823 301.290913 240.387467 
Q 307.758661 231.699766 307.758661 216.032019 
Q 307.758661 200.278889 301.290913 191.612533 
Q 294.823164 182.946177 283.01899 182.946177 
z
M 283.01899 164.332722 
Q 307.032907 164.332722 320.630121 178.079356 
Q 334.24868 191.804644 334.24868 216.032019 
Q 334.24868 240.17401 320.630121 253.920644 
Q 307.032907 267.667278 283.01899 267.667278 
Q 259.069109 267.667278 245.429204 253.920644 
Q 231.789299 240.17401 231.789299 216.032019 
Q 231.789299 191.804644 245.429204 178.079356 
Q 259.069109 164.332722 283.01899 164.332722 
z
M 399.152963 182.946177 
Q 387.412826 182.946177 380.945077 191.612533 
Q 374.477329 200.278889 374.477329 216.032019 
Q 374.477329 231.699766 380.945077 240.387467 
Q 387.412826 249.053823 399.152963 249.053823 
Q 410.957138 249.053823 417.424886 240.387467 
Q 423.892635 231.699766 423.892635 216.032019 
Q 423.892635 200.278889 417.424886 191.612533 
Q 410.957138 182.946177 399.152963 182.946177 
z
M 399.152963 164.332722 
Q 423.166881 164.332722 436.764094 178.079356 
Q 450.382654 191.804644 450.382654 216.032019 
Q 450.382654 240.17401 436.764094 253.920644 
Q 423.166881 267.667278 399.152963 267.667278 
Q 375.203083 267.667278 361.563178 253.920644 
Q 347.923272 240.17401 347.923272 216.032019 
Q 347.923272 191.804644 361.563178 178.079356 
Q 375.203083 164.332722 399.152963 164.332722 
z
M 495.478123 185.550353 
L 495.478123 246.321573 
L 504.678121 246.321573 
Q 520.409906 246.321573 528.713385 238.509045 
Q 537.038209 230.696518 537.038209 215.818562 
Q 537.038209 201.025988 528.756076 193.298843 
Q 520.495288 185.550353 504.678121 185.550353 
L 495.478123 185.550353 
z
M 469.79924 166.125762 
L 496.865594 166.125762 
Q 519.556077 166.125762 530.655844 169.370309 
Q 541.75561 172.59351 549.696212 180.342001 
Q 556.697603 187.087243 560.09157 195.903019 
Q 563.506883 204.697449 563.506883 215.818562 
Q 563.506883 227.110439 560.09157 235.947561 
Q 556.697603 244.784682 549.696212 251.508579 
Q 541.691573 259.25707 530.485078 262.501617 
Q 519.278583 265.724819 496.865594 265.724819 
L 469.79924 265.724819 
L 469.79924 166.125762 
z
M 583.198295 166.125762 
L 608.877178 166.125762 
L 608.877178 265.724819 
L 583.198295 265.724819 
L 583.198295 166.125762 
z
M 634.027754 166.125762 
L 659.706637 166.125762 
L 659.706637 225.829697 
Q 659.706637 238.167514 663.740975 243.482595 
Q 667.775313 248.776329 676.911274 248.776329 
Q 686.111273 248.776329 690.145611 243.482595 
Q 694.179949 238.167514 694.179949 225.829697 
L 694.179949 166.125762 
L 719.858832 166.125762 
L 719.858832 225.829697 
Q 719.858832 246.98329 709.250017 257.335957 
Q 698.662547 267.667278 676.911274 267.667278 
Q 655.224039 267.667278 644.615224 257.335957 
Q 634.027754 246.98329 634.027754 225.829697 
L 634.027754 166.125762 
z
M 814.246869 169.26358 
L 814.246869 190.353136 
Q 806.050118 186.681675 798.23759 184.824599 
Q 790.446408 182.946177 783.509054 182.946177 
Q 774.309056 182.946177 769.890495 185.486315 
Q 765.49328 188.005109 765.49328 193.341535 
Q 765.49328 197.354527 768.460333 199.595826 
Q 771.427386 201.815779 779.239913 203.416707 
L 790.168914 205.615315 
Q 806.775872 208.96659 813.777263 215.77587 
Q 820.8 222.563804 820.8 235.115078 
Q 820.8 251.572617 811.023667 259.619947 
Q 801.247335 267.667278 781.161027 267.667278 
Q 771.70488 267.667278 762.16335 265.852893 
Q 752.62182 264.059854 743.08029 260.516467 
L 743.08029 238.850577 
Q 752.62182 243.909509 761.522979 246.492339 
Q 770.424137 249.053823 778.706271 249.053823 
Q 787.116478 249.053823 791.577731 246.257536 
Q 796.038983 243.439903 796.038983 238.231551 
Q 796.038983 233.578188 793.007893 231.038049 
Q 789.976803 228.49791 780.904878 226.491414 
L 770.95778 224.292806 
Q 756.015787 221.090951 749.099779 214.089559 
Q 742.205116 207.088168 742.205116 195.219957 
Q 742.205116 180.342001 751.810683 172.337362 
Q 761.41625 164.332722 779.432025 164.332722 
Q 787.650121 164.332722 796.316477 165.570773 
Q 804.982833 166.808824 814.246869 169.26358 
z
" clip-path="url(#p5dbf069b3b)" style="fill: #f4e5c8"/>
   </g>
  </g>
 </g>
 <defs>
  <clipPath id="p5dbf069b3b">
   <rect x="0" y="0" width="864" height="432"/>
  </clipPath>
 </defs>
</svg>
